REM DIRINDEX 1\8,1\2\11,1\3\12,1\3\14,1\5\15,1\5\16,1\6\17,1\6\18,1\4\19,1\4\20,1\4\21,1\4\22,1\7\23,1\7\24,1\7\25,1\2\9\26,1\2\9\27,1\2\10\28,1\2\10\29,1\2\10\30,1\2\10\31,1\2\10\32,1\3\13\33,1\3\13\34,1\3\13\35
REM DIRNAME folder01,folder02,folder03,folder04,folder05,folder06,folder07,folder08,folder09,folder10,folder11,folder12,folder13,folder14,folder15,folder16,folder17,folder18,folder19,folder20,folder21,folder22,folder23,folder24,folder25,folder26,folder27,folder28,folder29,folder30,folder31,folder32,folder33,folder34,folder35
TITLE ""
FILE "104 104_UNIT5_SET2.mp3" MP3
  TRACK 01 AUDIO
    TITLE "14:cjc123_1772"
    INDEX 01 00:00:00
  TRACK 02 AUDIO
    TITLE "0:"
    INDEX 01 00:02:49
  TRACK 03 AUDIO
    TITLE "33:cjc123_1773"
    INDEX 01 00:03:31
  TRACK 04 AUDIO
    TITLE "0:"
    INDEX 01 00:04:29
  TRACK 05 AUDIO
    TITLE "34:cjc123_1774"
    INDEX 01 00:04:60
  TRACK 06 AUDIO
    TITLE "0:"
    INDEX 01 00:05:56
  TRACK 07 AUDIO
    TITLE "35:cjc123_1775"
    INDEX 01 00:06:30
  TRACK 08 AUDIO
    TITLE "0:"
    INDEX 01 00:11:39
  TRACK 09 AUDIO
    TITLE "33:cjc123_1776"
    INDEX 01 00:12:09
  TRACK 10 AUDIO
    TITLE "0:"
    INDEX 01 00:13:26
  TRACK 11 AUDIO
    TITLE "34:cjc123_1777"
    INDEX 01 00:13:51
  TRACK 12 AUDIO
    TITLE "0:"
    INDEX 01 00:14:68
  TRACK 13 AUDIO
    TITLE "35:cjc123_1778"
    INDEX 01 00:15:42
  TRACK 14 AUDIO
    TITLE "0:"
    INDEX 01 00:19:50
  TRACK 15 AUDIO
    TITLE "33:cjc123_1779"
    INDEX 01 00:20:37
  TRACK 16 AUDIO
    TITLE "0:"
    INDEX 01 00:21:47
  TRACK 17 AUDIO
    TITLE "34:cjc123_1780"
    INDEX 01 00:22:03
  TRACK 18 AUDIO
    TITLE "0:"
    INDEX 01 00:23:08
  TRACK 19 AUDIO
    TITLE "35:cjc123_1781"
    INDEX 01 00:23:55
  TRACK 20 AUDIO
    TITLE "0:"
    INDEX 01 00:26:62
  TRACK 21 AUDIO
    TITLE "33:cjc123_1782"
    INDEX 01 00:27:47
  TRACK 22 AUDIO
    TITLE "0:"
    INDEX 01 00:28:53
  TRACK 23 AUDIO
    TITLE "34:cjc123_1783"
    INDEX 01 00:29:11
  TRACK 24 AUDIO
    TITLE "0:"
    INDEX 01 00:30:22
  TRACK 25 AUDIO
    TITLE "35:cjc123_1784"
    INDEX 01 00:30:71
  TRACK 26 AUDIO
    TITLE "0:"
    INDEX 01 00:34:16
  TRACK 27 AUDIO
    TITLE "33:cjc123_1785"
    INDEX 01 00:34:73
  TRACK 28 AUDIO
    TITLE "0:"
    INDEX 01 00:36:05
  TRACK 29 AUDIO
    TITLE "34:cjc123_1786"
    INDEX 01 00:36:29
  TRACK 30 AUDIO
    TITLE "0:"
    INDEX 01 00:37:26
  TRACK 31 AUDIO
    TITLE "35:cjc123_1787"
    INDEX 01 00:38:04
  TRACK 32 AUDIO
    TITLE "0:"
    INDEX 01 00:42:43
  TRACK 33 AUDIO
    TITLE "33:cjc123_1788"
    INDEX 01 00:43:17
  TRACK 34 AUDIO
    TITLE "0:"
    INDEX 01 00:44:32
  TRACK 35 AUDIO
    TITLE "34:cjc123_1789"
    INDEX 01 00:44:58
  TRACK 36 AUDIO
    TITLE "0:"
    INDEX 01 00:45:73
  TRACK 37 AUDIO
    TITLE "35:cjc123_1790"
    INDEX 01 00:46:47
  TRACK 38 AUDIO
    TITLE "0:"
    INDEX 01 00:52:16
  TRACK 39 AUDIO
    TITLE "33:cjc123_1791"
    INDEX 01 00:52:69
  TRACK 40 AUDIO
    TITLE "0:"
    INDEX 01 00:53:66
  TRACK 41 AUDIO
    TITLE "34:cjc123_1792"
    INDEX 01 00:54:19
  TRACK 42 AUDIO
    TITLE "0:"
    INDEX 01 00:55:14
  TRACK 43 AUDIO
    TITLE "35:cjc123_1793"
    INDEX 01 00:55:63
  TRACK 44 AUDIO
    TITLE "0:"
    INDEX 01 01:01:07
  TRACK 45 AUDIO
    TITLE "33:cjc123_1794"
    INDEX 01 01:01:62
  TRACK 46 AUDIO
    TITLE "0:"
    INDEX 01 01:02:71
  TRACK 47 AUDIO
    TITLE "34:cjc123_1795"
    INDEX 01 01:03:22
  TRACK 48 AUDIO
    TITLE "0:"
    INDEX 01 01:04:29
  TRACK 49 AUDIO
    TITLE "35:cjc123_1796"
    INDEX 01 01:05:05
  TRACK 50 AUDIO
    TITLE "0:"
    INDEX 01 01:08:40
  TRACK 51 AUDIO
    TITLE "33:cjc123_1797"
    INDEX 01 01:09:16
  TRACK 52 AUDIO
    TITLE "0:"
    INDEX 01 01:10:14
  TRACK 53 AUDIO
    TITLE "34:cjc123_1798"
    INDEX 01 01:10:43
  TRACK 54 AUDIO
    TITLE "0:"
    INDEX 01 01:11:31
  TRACK 55 AUDIO
    TITLE "35:cjc123_1799"
    INDEX 01 01:11:62
  TRACK 56 AUDIO
    TITLE "0:"
    INDEX 01 01:16:65
  TRACK 57 AUDIO
    TITLE "33:cjc123_1800"
    INDEX 01 01:17:49
  TRACK 58 AUDIO
    TITLE "0:"
    INDEX 01 01:18:66
  TRACK 59 AUDIO
    TITLE "34:cjc123_1801"
    INDEX 01 01:19:23
  TRACK 60 AUDIO
    TITLE "0:"
    INDEX 01 01:20:44
  TRACK 61 AUDIO
    TITLE "35:cjc123_1802"
    INDEX 01 01:21:16
  TRACK 62 AUDIO
    TITLE "0:"
    INDEX 01 01:24:43
  TRACK 63 AUDIO
    TITLE "33:cjc123_1803"
    INDEX 01 01:25:33
  TRACK 64 AUDIO
    TITLE "0:"
    INDEX 01 01:26:62
  TRACK 65 AUDIO
    TITLE "34:cjc123_1804"
    INDEX 01 01:27:12
  TRACK 66 AUDIO
    TITLE "0:"
    INDEX 01 01:28:27
  TRACK 67 AUDIO
    TITLE "35:cjc123_1805"
    INDEX 01 01:29:01
  TRACK 68 AUDIO
    TITLE "0:"
    INDEX 01 01:34:28
  TRACK 69 AUDIO
    TITLE "33:cjc123_1806"
    INDEX 01 01:35:16
  TRACK 70 AUDIO
    TITLE "0:"
    INDEX 01 01:36:15
  TRACK 71 AUDIO
    TITLE "34:cjc123_1807"
    INDEX 01 01:36:29
  TRACK 72 AUDIO
    TITLE "0:"
    INDEX 01 01:37:34
  TRACK 73 AUDIO
    TITLE "35:cjc123_1808"
    INDEX 01 01:38:12
  TRACK 74 AUDIO
    TITLE "0:"
    INDEX 01 01:42:35
  TRACK 75 AUDIO
    TITLE "33:cjc123_1809"
    INDEX 01 01:43:09
  TRACK 76 AUDIO
    TITLE "0:"
    INDEX 01 01:44:05
  TRACK 77 AUDIO
    TITLE "34:cjc123_1810"
    INDEX 01 01:44:23
  TRACK 78 AUDIO
    TITLE "0:"
    INDEX 01 01:45:12
  TRACK 79 AUDIO
    TITLE "35:cjc123_1811"
    INDEX 01 01:45:61
  TRACK 80 AUDIO
    TITLE "0:"
    INDEX 01 01:50:62
  TRACK 81 AUDIO
    TITLE "33:cjc123_1812"
    INDEX 01 01:51:42
  TRACK 82 AUDIO
    TITLE "0:"
    INDEX 01 01:52:55
  TRACK 83 AUDIO
    TITLE "34:cjc123_1813"
    INDEX 01 01:53:10
  TRACK 84 AUDIO
    TITLE "0:"
    INDEX 01 01:54:17
  TRACK 85 AUDIO
    TITLE "35:cjc123_1814"
    INDEX 01 01:55:03
  TRACK 86 AUDIO
    TITLE "0:"
    INDEX 01 02:00:59
  TRACK 87 AUDIO
    TITLE "33:cjc123_1815"
    INDEX 01 02:01:43
  TRACK 88 AUDIO
    TITLE "0:"
    INDEX 01 02:02:56
  TRACK 89 AUDIO
    TITLE "34:cjc123_1816"
    INDEX 01 02:03:08
  TRACK 90 AUDIO
    TITLE "0:"
    INDEX 01 02:04:21
  TRACK 91 AUDIO
    TITLE "35:cjc123_1817"
    INDEX 01 02:04:64
  TRACK 92 AUDIO
    TITLE "0:"
    INDEX 01 02:08:74
